<?xml version="1.0" standalone="no"?>
<!DOCTYPE svg PUBLIC "-//W3C//DTD SVG 20010904//EN"
 "http://www.w3.org/TR/2001/REC-SVG-20010904/DTD/svg10.dtd">
<svg version="1.0" xmlns="http://www.w3.org/2000/svg"
 width="1290.000000pt" height="2796.000000pt" viewBox="0 0 1290.000000 2796.000000"
 preserveAspectRatio="xMidYMid meet">

<g transform="translate(0.000000,2796.000000) scale(0.100000,-0.100000)"
fill="#000000" stroke="none">
<path d="M3820 25341 l0 -441 50 0 50 0 0 175 0 175 108 0 109 0 94 -175 94
-175 63 0 c62 0 63 0 51 23 -7 12 -52 94 -101 182 -49 88 -84 161 -78 163 6 2
32 18 57 35 70 47 103 116 103 215 0 93 -23 148 -83 195 -74 59 -85 61 -309
65 l-208 4 0 -441z m410 320 c55 -29 74 -63 78 -139 3 -57 0 -72 -20 -101 -43
-64 -73 -74 -227 -75 l-136 -1 -3 168 -2 167 137 0 c116 0 144 -3 173 -19z"/>
<path d="M5820 25340 l0 -440 50 0 50 0 0 440 0 440 -50 0 -50 0 0 -440z"/>
<path d="M6560 25730 l0 -50 140 0 140 0 0 -390 0 -390 55 0 55 0 0 390 0 390
135 0 135 0 0 50 0 50 -330 0 -330 0 0 -50z"/>
<path d="M7354 25762 c-42 -27 -35 -95 11 -112 27 -10 62 1 77 24 13 19 9 64
-8 80 -16 17 -61 21 -80 8z"/>
<path d="M4749 25539 c-60 -9 -95 -28 -140 -76 -68 -71 -95 -160 -86 -285 6
-97 40 -172 100 -223 127 -109 356 -74 427 66 11 21 20 43 20 49 0 5 -22 10
-49 10 -45 0 -52 -3 -68 -30 -21 -37 -86 -70 -136 -70 -42 0 -101 22 -131 48
-26 24 -56 91 -56 130 l0 32 226 0 227 0 -6 74 c-15 196 -143 303 -328 275z
m131 -104 c42 -21 81 -78 87 -125 l6 -40 -173 0 -173 0 6 36 c8 50 48 107 88
127 42 21 121 22 159 2z"/>
<path d="M5385 25539 c-85 -11 -151 -57 -181 -126 -24 -55 -20 -63 34 -63 44
1 49 3 71 39 30 49 56 61 132 61 53 0 63 -3 95 -33 32 -29 36 -38 37 -87 l2
-55 -115 -8 c-166 -11 -240 -40 -275 -107 -19 -36 -19 -120 -1 -164 28 -67
121 -112 211 -103 65 7 108 28 151 75 l34 37 0 -52 0 -53 51 0 50 0 -3 254 -3
254 -30 43 c-50 71 -145 103 -260 88z m195 -371 c-1 -111 -77 -188 -183 -188
-81 0 -143 65 -121 126 20 59 80 80 227 83 74 1 77 0 77 -21z"/>
<path d="M7815 25535 c-34 -9 -59 -24 -82 -49 -18 -20 -35 -36 -38 -36 -3 0
-5 18 -5 40 l0 40 -50 0 -50 0 0 -315 0 -315 49 0 49 0 4 223 c3 208 4 224 25
257 12 19 35 43 51 53 37 21 103 22 142 2 56 -29 60 -51 60 -305 l0 -230 55 0
55 0 0 225 c0 250 4 269 63 305 39 24 106 26 147 5 56 -29 60 -51 60 -305 l0
-230 55 0 55 0 0 220 c0 256 -8 307 -57 361 -40 44 -86 62 -157 61 -69 -1
-116 -23 -161 -74 -24 -27 -39 -38 -42 -30 -9 24 -55 73 -82 86 -41 21 -92 25
-146 11z"/>
<path d="M8789 25539 c-59 -9 -95 -28 -141 -76 -63 -66 -82 -121 -82 -248 -1
-101 1 -115 27 -167 16 -32 47 -73 70 -93 127 -109 356 -74 427 66 11 21 20
43 20 49 0 5 -22 10 -49 10 -45 0 -52 -3 -68 -30 -21 -36 -86 -70 -134 -70
-43 1 -104 22 -131 47 -28 25 -58 91 -58 131 l0 32 226 0 227 0 -6 74 c-14
195 -143 303 -328 275z m131 -104 c42 -21 81 -78 87 -125 l6 -40 -173 0 -173
0 6 36 c8 50 48 107 88 127 42 21 121 22 159 2z"/>
<path d="M7340 25215 l0 -315 50 0 50 0 0 315 0 315 -50 0 -50 0 0 -315z"/>
<path d="M6098 25303 c-26 -4 -28 -8 -28 -49 l0 -44 195 0 195 0 0 50 0 50
-167 -1 c-93 -1 -180 -4 -195 -6z"/>
<path d="M7885 24198 c-73 -26 -121 -84 -131 -160 -7 -53 14 -109 69 -177 l35
-45 -46 -29 c-110 -68 -154 -135 -154 -232 0 -138 100 -230 265 -242 91 -7
178 14 252 62 l55 35 41 -45 c41 -44 42 -45 106 -45 l65 0 -76 81 c-55 58 -75
86 -70 98 39 93 56 162 57 235 l2 81 -40 0 -40 0 -8 -60 c-32 -222 -28 -221
-160 -78 l-107 116 65 44 c87 58 120 109 119 182 -1 90 -47 151 -133 180 -42
14 -126 13 -166 -1z m171 -102 c29 -29 34 -41 34 -79 0 -30 -7 -53 -22 -72
-28 -35 -96 -85 -118 -85 -9 0 -35 25 -58 56 -50 67 -57 123 -21 168 27 34 52
45 108 45 36 1 48 -4 77 -33z m-36 -453 c146 -161 146 -160 125 -183 -61 -68
-241 -86 -315 -31 -70 51 -91 144 -49 216 21 34 112 106 134 104 5 0 53 -48
105 -106z"/>
<path d="M1880 23760 l0 -440 50 0 50 0 0 200 0 200 245 0 245 0 0 -200 0
-200 50 0 50 0 1 138 c1 137 1 228 0 565 l-1 177 -50 0 -50 0 0 -190 0 -190
-245 0 -245 0 0 190 0 190 -50 0 -50 0 0 -440z"/>
<path d="M5040 23761 l0 -441 50 0 50 0 0 175 0 175 109 0 110 0 85 -158 c47
-87 91 -166 99 -175 10 -14 24 -17 68 -15 l56 3 -99 175 c-54 96 -98 178 -98
182 0 4 15 14 34 23 81 39 128 114 134 218 5 83 -14 139 -65 192 -69 71 -102
79 -330 83 l-203 4 0 -441z m364 339 c85 -19 131 -82 129 -172 -1 -68 -25
-113 -75 -143 -28 -17 -55 -21 -175 -23 l-143 -4 0 169 c0 93 3 173 7 176 10
10 212 8 257 -3z"/>
<path d="M8780 23760 l0 -440 50 0 50 0 0 200 0 200 245 0 245 0 0 -200 0
-200 50 0 50 0 2 288 c1 241 0 422 -2 565 0 26 -2 27 -50 27 l-50 0 0 -190 0
-190 -245 0 -245 0 0 190 0 190 -50 0 -50 0 0 -440z"/>
<path d="M9650 23761 l0 -441 50 0 50 0 0 175 0 176 111 -3 111 -3 92 -170 92
-170 63 -3 63 -3 -20 33 c-32 52 -182 326 -182 332 0 3 15 12 34 21 81 39 128
114 134 218 5 83 -14 139 -65 192 -69 71 -102 79 -330 83 l-203 4 0 -441z
m359 340 c87 -17 135 -78 134 -172 -1 -68 -24 -114 -75 -144 -28 -17 -55 -21
-175 -23 l-143 -4 0 169 c0 93 3 173 7 176 9 10 199 8 252 -2z"/>
<path d="M10332 24192 c2 -5 75 -203 162 -440 l159 -432 51 0 51 0 161 438
161 437 -49 3 c-28 2 -52 1 -55 -1 -2 -3 -51 -139 -109 -303 -153 -439 -156
-446 -164 -437 -4 4 -64 173 -135 376 l-128 367 -54 0 c-30 0 -53 -4 -51 -8z"/>
<path d="M4427 24113 c-4 -3 -7 -42 -7 -85 l0 -78 -45 0 -45 0 0 -40 0 -40 45
0 c29 0 45 -4 45 -12 0 -7 2 -107 3 -223 2 -177 5 -216 20 -245 25 -51 68 -73
141 -74 l61 -1 3 36 c3 36 2 36 -40 42 -76 10 -78 18 -78 263 l0 214 60 0 60
0 0 40 0 40 -60 0 -60 0 0 85 0 85 -48 0 c-27 0 -52 -3 -55 -7z"/>
<path d="M6425 24035 l-7 -85 -44 0 -44 0 0 -40 0 -40 45 0 c29 0 45 -5 46
-12 1 -7 2 -107 3 -223 1 -176 4 -216 19 -245 24 -50 68 -73 141 -74 l61 -1 3
36 c3 36 2 36 -40 42 -76 10 -78 18 -78 263 l0 214 60 0 60 0 0 40 0 40 -60 0
-60 0 0 85 0 85 -49 0 -49 0 -7 -85z"/>
<path d="M2865 23936 c-59 -27 -98 -70 -134 -146 -22 -47 -25 -69 -26 -155 0
-94 2 -105 33 -168 39 -79 87 -119 171 -143 137 -40 301 35 336 154 6 21 3 22
-42 22 -43 0 -50 -3 -65 -29 -40 -72 -174 -93 -252 -40 -39 26 -70 81 -80 142
l-7 37 232 0 232 0 -7 73 c-11 130 -76 228 -173 263 -62 22 -160 17 -218 -10z
m212 -88 c31 -18 65 -75 78 -130 l7 -28 -177 0 -178 0 6 40 c16 120 157 183
264 118z"/>
<path d="M3500 23940 c-70 -33 -102 -68 -120 -131 -9 -29 -9 -29 38 -29 41 0
49 4 64 29 22 40 72 64 133 64 94 1 150 -55 143 -141 l-3 -37 -132 -11 c-107
-10 -142 -16 -180 -36 -90 -47 -120 -155 -69 -242 67 -115 259 -124 349 -16
14 16 28 30 31 30 3 0 6 -22 6 -50 l0 -50 50 0 50 0 0 223 c0 122 -4 239 -9
260 -23 100 -97 150 -226 155 -64 2 -89 -2 -125 -18z m258 -364 c5 -56 -31
-121 -82 -151 -72 -42 -187 -29 -216 24 -20 39 -12 81 23 116 34 34 48 37 207
48 64 5 65 4 68 -37z"/>
<path d="M4194 23950 c-20 -8 -55 -46 -81 -86 -10 -16 -12 -11 -12 34 l-1 52
-50 0 -50 0 0 -315 0 -315 49 0 50 0 3 229 c3 214 4 232 24 258 27 37 80 63
127 63 l37 0 0 45 0 45 -37 -1 c-21 0 -47 -4 -59 -9z"/>
<path d="M5915 23948 c-66 -24 -117 -76 -135 -137 l-9 -31 47 0 c41 0 49 4 64
29 22 40 72 64 133 64 94 1 150 -55 143 -141 l-3 -37 -133 -11 c-106 -9 -142
-16 -180 -36 -123 -63 -124 -238 -1 -308 88 -49 218 -26 282 50 14 16 28 30
31 30 3 0 6 -22 6 -50 l0 -50 50 0 50 0 0 223 c0 122 -4 239 -9 260 -24 100
-97 150 -226 154 -44 1 -93 -3 -110 -9z m243 -372 c5 -56 -31 -121 -82 -151
-72 -42 -187 -29 -216 24 -20 39 -12 81 23 116 34 34 48 37 207 48 64 5 65 4
68 -37z"/>
<path d="M6902 23934 c-61 -30 -96 -69 -131 -144 -21 -46 -25 -70 -25 -145 -1
-155 45 -247 148 -300 51 -26 71 -30 136 -30 65 0 85 4 134 30 58 30 107 83
121 133 6 21 3 22 -42 22 -43 0 -50 -3 -65 -29 -40 -72 -174 -93 -252 -40 -39
26 -70 81 -80 142 l-7 37 232 0 232 0 -7 72 c-16 178 -114 278 -271 278 -56 0
-82 -5 -123 -26z m215 -86 c32 -19 70 -84 75 -128 l3 -25 -174 -3 -174 -2 6
40 c16 120 157 183 264 118z"/>
<path d="M5305 22080 c-130 -13 -218 -53 -296 -137 -88 -94 -129 -195 -129
-317 0 -208 120 -374 320 -442 53 -18 105 -19 1250 -19 1145 0 1197 1 1250 19
200 69 320 234 320 443 0 128 -51 245 -149 336 -53 50 -99 76 -181 103 -52 17
-120 18 -1180 20 -619 1 -1161 -2 -1205 -6z m1710 -402 c47 -21 46 -101 -2
-119 -73 -28 -128 62 -67 110 31 24 35 25 69 9z"/>
<path d="M9011 21796 c-8 -9 -11 -46 -9 -103 l3 -88 28 -3 c47 -6 57 12 57 95
0 41 -5 83 -10 94 -12 22 -52 25 -69 5z"/>
<path d="M9942 21795 c-21 -9 -38 -27 -47 -49 -20 -47 -20 -178 0 -220 25 -53
47 -60 188 -64 l127 -4 0 176 0 176 -117 0 c-80 -1 -129 -5 -151 -15z m218
-75 c0 -17 -7 -20 -45 -20 -41 0 -45 -2 -45 -25 0 -23 2 -24 20 -13 34 21 74
-8 78 -56 4 -51 -19 -76 -70 -76 -37 0 -78 26 -78 50 0 16 36 12 50 -5 21 -25
54 -15 58 17 4 31 -25 53 -49 37 -7 -5 -23 -9 -34 -9 -18 0 -20 6 -17 48 5 72
5 72 72 72 53 0 60 -2 60 -20z"/>
<path d="M3384 21776 c-30 -13 -60 -66 -47 -80 14 -13 42 -5 48 15 13 39 76
45 96 8 14 -27 -7 -62 -80 -134 -40 -39 -61 -67 -61 -83 0 -22 1 -23 102 -20
89 3 103 5 106 21 3 15 -5 17 -62 17 -36 0 -67 3 -70 8 -2 4 22 34 55 67 67
68 82 109 55 150 -29 44 -84 56 -142 31z"/>
<path d="M3651 21768 c-42 -29 -64 -85 -59 -153 6 -70 26 -107 71 -129 33 -16
45 -17 76 -7 55 16 76 44 76 102 0 66 -28 94 -90 93 -29 -1 -52 -8 -66 -20
-20 -18 -20 -18 -14 11 12 51 33 75 65 75 15 0 35 -7 44 -15 18 -19 56 -20 56
-2 0 24 -47 59 -87 64 -29 4 -46 -1 -72 -19z m99 -148 c24 -24 25 -48 4 -78
-31 -44 -104 -16 -104 40 0 24 35 58 60 58 11 0 29 -9 40 -20z"/>
<path d="M9392 21775 c-24 -7 -61 -26 -83 -41 -33 -23 -37 -29 -27 -43 23 -29
30 -29 75 -1 78 50 183 48 261 -5 l37 -25 20 21 20 20 -35 30 c-64 54 -177 73
-268 44z"/>
<path d="M2838 21753 c-26 -17 -38 -33 -38 -49 0 -29 5 -30 37 -4 14 11 30 20
34 20 5 0 9 -54 9 -120 l0 -120 30 0 30 0 0 150 0 150 -32 -1 c-18 0 -50 -12
-70 -26z"/>
<path d="M3032 21750 c-25 -18 -42 -38 -42 -50 0 -25 8 -25 40 0 14 11 28 20
32 20 4 0 9 -53 10 -117 l3 -118 28 -3 27 -3 0 150 0 151 -28 0 c-16 0 -47
-13 -70 -30z"/>
<path d="M8882 21761 c-9 -5 -12 -29 -10 -82 l3 -74 35 0 35 0 3 68 c3 71 -7
97 -37 97 -9 0 -22 -4 -29 -9z"/>
<path d="M3214 21726 c-10 -26 4 -48 28 -44 17 2 23 10 23 28 0 18 -6 26 -23
28 -13 2 -25 -3 -28 -12z"/>
<path d="M8736 21704 c-3 -9 -6 -28 -6 -44 0 -47 9 -60 45 -60 36 0 45 13 45
60 0 47 -9 60 -45 60 -21 0 -35 -6 -39 -16z"/>
<path d="M8604 21687 c-3 -8 -4 -30 -2 -49 3 -31 6 -33 38 -33 35 0 35 0 35
45 0 43 -1 45 -33 48 -21 2 -34 -2 -38 -11z"/>
<path d="M9393 21659 c-47 -23 -51 -33 -27 -60 15 -17 17 -17 47 2 42 25 107
25 140 -1 l26 -20 20 21 c17 18 18 25 8 37 -36 45 -146 55 -214 21z"/>
<path d="M3222 21578 c-15 -15 -16 -45 -2 -53 6 -3 19 -3 30 0 24 8 27 50 4
59 -20 8 -18 8 -32 -6z"/>
<path d="M9448 21569 c-16 -6 -28 -14 -28 -18 0 -4 15 -21 33 -39 l33 -32 32
33 c26 27 30 36 20 45 -21 17 -61 22 -90 11z"/>
<path d="M8612 21548 c-17 -17 -15 -63 3 -78 8 -7 25 -10 40 -6 21 5 25 12 25
45 0 26 -5 41 -16 45 -24 9 -39 7 -52 -6z"/>
<path d="M8742 21548 c-7 -7 -12 -25 -12 -40 0 -34 41 -59 68 -41 21 12 28 59
11 79 -14 17 -51 18 -67 2z"/>
<path d="M8883 21553 c-7 -2 -13 -22 -13 -44 0 -33 4 -40 25 -45 32 -8 55 11
55 45 0 42 -28 60 -67 44z"/>
<path d="M9012 21548 c-7 -7 -12 -24 -12 -38 0 -30 16 -50 41 -50 23 0 49 27
49 50 0 39 -52 64 -78 38z"/>
<path d="M6430 19231 c0 -62 -2 -71 -19 -71 -10 0 -76 -5 -147 -10 -359 -29
-642 -100 -980 -246 -6 -3 -24 23 -40 60 -16 36 -35 66 -42 66 -26 0 -246
-123 -387 -215 -391 -256 -703 -588 -940 -999 -186 -324 -297 -658 -366 -1101
-20 -124 -16 -613 5 -745 75 -464 212 -840 432 -1183 385 -599 951 -1030 1622
-1236 739 -227 1542 -152 2227 208 868 456 1446 1305 1556 2286 19 167 17 507
-5 675 -69 540 -282 1048 -618 1473 -98 123 -341 368 -458 460 -436 345 -926
552 -1480 626 -41 5 -139 13 -217 17 l-143 7 0 -72z m1108 -2156 c20 -9 46
-25 58 -36 21 -19 21 -19 80 17 52 31 65 35 110 32 69 -6 128 -47 168 -118 27
-48 31 -64 30 -130 0 -125 -30 -167 -209 -290 -55 -38 -112 -79 -126 -90 l-26
-20 -39 31 c-22 17 -79 58 -129 92 -118 78 -143 102 -171 162 -91 192 77 423
254 350z m-943 -50 c71 -19 155 -65 188 -105 70 -82 95 -210 62 -309 -21 -64
-91 -143 -147 -166 l-42 -16 58 -24 c73 -30 109 -63 144 -135 24 -48 27 -66
27 -150 -1 -114 -19 -163 -91 -240 -61 -65 -144 -105 -252 -120 -204 -30 -396
52 -468 201 -43 88 -46 83 64 113 54 14 105 26 114 26 8 0 23 -18 33 -39 35
-79 89 -111 183 -111 138 1 224 99 200 229 -16 89 -91 135 -239 147 l-79 7 0
92 0 92 86 6 c148 11 205 55 206 161 1 92 -51 149 -146 162 -63 9 -126 -16
-171 -69 -19 -22 -35 -47 -35 -54 0 -10 -6 -12 -22 -7 -13 4 -63 17 -111 30
-49 12 -91 25 -94 28 -11 11 47 112 89 155 49 49 95 75 171 96 70 18 199 19
272 0z m-755 -105 c0 -89 -3 -106 -29 -162 -16 -35 -101 -216 -190 -403 -89
-187 -187 -395 -219 -462 l-57 -122 -122 -1 c-68 0 -123 4 -123 9 0 9 75 167
260 546 51 105 125 258 165 340 l73 150 -304 3 -304 2 0 100 0 100 425 0 425
0 0 -100z m1472 -700 c63 -18 89 -84 50 -125 -17 -18 -16 -20 5 -41 23 -23 30
-65 17 -99 -13 -33 -59 -45 -174 -45 l-110 0 0 160 0 160 88 0 c48 0 104 -5
124 -10z m338 -6 c46 -19 70 -55 70 -108 0 -68 -68 -115 -167 -116 -32 0 -33
-2 -33 -40 l0 -40 -40 0 -40 0 0 153 c0 85 3 157 7 160 13 14 163 7 203 -9z
m235 -70 c28 -47 55 -90 61 -95 8 -7 28 18 66 83 49 84 57 93 86 96 l32 3 0
-160 0 -161 -35 0 -34 0 -3 87 -3 88 -43 -73 c-27 -45 -49 -72 -60 -72 -10 0
-34 27 -59 68 l-42 67 -1 -82 0 -83 -40 0 -40 0 0 153 c0 85 3 157 7 160 3 4
18 7 32 7 22 0 34 -14 76 -86z"/>
<path d="M7180 16136 l0 -36 55 0 c42 0 57 4 62 16 12 31 -11 49 -66 52 l-51
3 0 -35z"/>
<path d="M7180 16005 l0 -36 61 3 c112 5 104 68 -8 68 l-53 0 0 -35z"/>
<path d="M7520 16110 l0 -50 48 0 c54 0 72 12 72 50 0 38 -18 50 -72 50 l-48
0 0 -50z"/>
<path d="M6192 10204 c-14 -10 -22 -25 -22 -45 0 -22 -5 -29 -20 -29 -11 0
-20 -7 -20 -15 0 -8 9 -15 20 -15 19 0 20 -7 20 -100 0 -55 4 -100 9 -100 16
0 21 30 21 116 l0 84 30 0 c20 0 30 5 30 15 0 10 -11 15 -35 15 -37 0 -42 9
-25 41 7 12 21 19 40 19 33 0 48 15 24 24 -26 10 -48 7 -72 -10z"/>
<path d="M6347 10213 c-4 -3 -7 -12 -7 -20 0 -15 26 -18 34 -4 7 11 -18 33
-27 24z"/>
<path d="M7580 10061 c0 -136 2 -161 15 -161 8 0 15 7 15 15 0 14 3 14 30 0
55 -29 126 -9 149 42 18 38 13 98 -9 126 -37 47 -120 58 -152 19 -11 -13 -14
-6 -18 48 -3 38 -10 65 -17 68 -10 3 -13 -33 -13 -157z m164 17 c24 -22 30
-39 27 -85 -3 -62 -100 -87 -140 -37 -65 83 36 191 113 122z"/>
<path d="M8360 10061 c0 -136 2 -161 15 -161 10 0 15 10 15 33 0 36 43 89 58
71 4 -5 25 -30 46 -56 20 -27 44 -48 52 -48 21 0 18 6 -31 67 -25 30 -45 60
-45 65 0 6 18 26 40 45 22 19 40 39 40 44 0 20 -25 6 -88 -51 l-67 -60 -5 102
c-3 68 -9 103 -17 106 -10 3 -13 -33 -13 -157z"/>
<path d="M9570 10060 c0 -136 2 -160 15 -160 12 0 15 15 15 75 0 67 3 79 25
100 33 34 77 33 104 -1 17 -22 21 -41 21 -100 0 -59 3 -74 15 -74 12 0 15 14
15 70 0 97 -17 135 -69 151 -35 10 -44 9 -75 -9 l-36 -21 0 64 c0 51 -3 65
-15 65 -13 0 -15 -24 -15 -160z"/>
<path d="M4230 10050 c0 -117 3 -151 13 -147 7 2 12 21 12 44 l0 41 62 5 c81
8 118 28 133 71 14 43 5 77 -26 107 -20 19 -38 23 -109 27 l-85 5 0 -153z
m161 109 c30 -15 42 -57 28 -91 -12 -31 -56 -48 -121 -48 l-38 0 0 75 0 75 56
0 c30 0 64 -5 75 -11z"/>
<path d="M4820 10150 c0 -13 -7 -20 -20 -20 -11 0 -20 -7 -20 -15 0 -8 9 -15
20 -15 18 0 20 -7 20 -83 0 -90 13 -117 57 -117 58 0 71 27 16 32 l-38 3 -3
82 -3 82 33 3 c42 4 43 22 1 26 -25 2 -33 8 -33 23 0 10 -7 19 -15 19 -8 0
-15 -9 -15 -20z"/>
<path d="M9400 10151 c0 -10 -9 -21 -20 -24 -11 -3 -20 -10 -20 -16 0 -6 9
-11 20 -11 18 0 20 -7 20 -80 0 -94 18 -123 72 -118 45 4 49 28 5 28 -43 0
-47 10 -47 101 l0 69 36 0 c45 0 42 24 -4 28 -24 2 -32 8 -32 23 0 10 -7 19
-15 19 -8 0 -15 -8 -15 -19z"/>
<path d="M4520 10042 c0 -83 2 -91 26 -116 31 -30 86 -35 122 -10 20 14 22 14
22 0 0 -9 7 -16 15 -16 12 0 15 20 15 116 0 88 -3 115 -12 112 -9 -3 -15 -34
-18 -87 -6 -92 -18 -111 -74 -111 -54 0 -61 11 -66 106 -3 57 -9 89 -17 92
-10 3 -13 -19 -13 -86z"/>
<path d="M5060 10121 c0 -5 22 -57 50 -116 l50 -107 -21 -30 c-19 -26 -26 -29
-56 -23 -27 5 -34 3 -31 -7 3 -7 23 -14 46 -16 50 -4 50 -3 127 165 57 127 63
147 43 141 -7 -3 -30 -46 -52 -96 -22 -51 -42 -92 -45 -92 -3 0 -19 33 -35 73
-16 39 -35 82 -42 95 -14 22 -34 30 -34 13z"/>
<path d="M5385 10123 c-32 -8 -74 -54 -81 -88 -8 -44 18 -100 55 -119 99 -52
204 45 157 145 -9 19 -24 39 -34 45 -23 15 -72 23 -97 17z m68 -34 c48 -22 61
-89 26 -133 -16 -21 -29 -26 -64 -26 -35 0 -48 5 -64 26 -59 75 16 172 102
133z"/>
<path d="M5596 10123 c-3 -3 -6 -42 -6 -85 0 -75 2 -81 29 -109 33 -33 84 -39
117 -14 25 19 34 19 34 0 0 -8 5 -15 10 -15 6 0 10 45 10 116 0 88 -3 115 -12
112 -9 -3 -15 -33 -18 -85 -6 -94 -18 -113 -70 -113 -56 0 -70 22 -70 113 0
70 -8 96 -24 80z"/>
<path d="M5880 10015 c0 -96 3 -115 15 -115 12 0 15 15 15 78 0 84 9 102 58
117 13 4 21 12 19 18 -5 15 -37 10 -58 -9 -17 -15 -30 -18 -28 -6 3 18 -2 32
-11 32 -6 0 -10 -45 -10 -115z"/>
<path d="M6347 10123 c-4 -3 -7 -55 -7 -115 0 -89 3 -108 15 -108 12 0 15 19
15 115 0 105 -5 127 -23 108z"/>
<path d="M6457 10123 c-4 -3 -7 -55 -7 -115 0 -89 3 -108 15 -108 11 0 15 13
15 53 0 76 15 122 46 135 36 17 61 15 84 -8 17 -17 20 -33 20 -100 0 -64 3
-80 15 -80 12 0 15 16 15 84 0 74 -3 88 -22 110 -32 35 -75 41 -120 17 -37
-18 -38 -18 -38 0 0 19 -11 25 -23 12z"/>
<path d="M6794 10116 c-41 -18 -64 -52 -64 -94 0 -90 81 -138 161 -96 17 8 33
14 35 12 2 -2 -1 -20 -6 -39 -15 -55 -68 -73 -135 -45 -40 17 -56 5 -23 -18
14 -10 44 -16 81 -16 99 0 122 43 115 219 -2 56 -7 86 -15 89 -8 2 -13 -5 -13
-17 l0 -21 -37 20 c-44 23 -57 24 -99 6z m90 -27 c30 -14 47 -58 37 -96 -10
-40 -66 -67 -110 -52 -37 13 -51 35 -51 83 0 60 63 93 124 65z"/>
<path d="M7083 10116 c-65 -29 -84 -123 -35 -177 35 -39 107 -51 147 -25 29
19 25 42 -5 26 -10 -5 -37 -10 -59 -10 -31 0 -44 6 -60 26 -12 15 -21 30 -21
35 0 5 42 10 93 11 l92 3 -3 30 c-4 38 -48 83 -87 90 -16 3 -44 -1 -62 -9z
m88 -29 c9 -7 21 -22 28 -34 12 -23 12 -23 -69 -23 -87 0 -95 6 -55 45 26 27
70 32 96 12z"/>
<path d="M7296 10123 c-3 -3 -6 -55 -6 -115 0 -89 3 -108 15 -108 12 0 15 13
15 59 0 81 14 114 56 134 19 10 32 22 29 27 -8 13 -43 3 -67 -18 -16 -14 -18
-14 -18 1 0 18 -14 30 -24 20z"/>
<path d="M7893 10115 c-38 -16 -46 -42 -10 -30 54 17 88 17 107 0 39 -35 26
-52 -42 -58 -48 -4 -67 -11 -80 -27 -24 -30 -23 -46 7 -75 28 -29 79 -33 113
-9 20 14 22 14 22 0 0 -9 7 -16 15 -16 12 0 15 16 15 84 0 74 -3 88 -22 110
-29 31 -82 41 -125 21z m110 -114 c4 -1 7 -9 7 -19 0 -51 -69 -78 -110 -43
-20 16 -23 23 -14 38 12 20 47 31 84 27 14 -1 28 -3 33 -3z"/>
<path d="M8183 10123 c-12 -2 -33 -16 -47 -30 -93 -93 17 -238 134 -178 17 9
30 20 30 25 0 13 -27 13 -35 0 -3 -5 -26 -10 -50 -10 -35 0 -48 5 -64 26 -61
77 29 183 108 128 29 -21 49 -5 23 19 -20 18 -65 28 -99 20z"/>
<path d="M8770 10113 c-50 -26 -75 -79 -60 -133 30 -112 198 -102 217 13 15
94 -74 161 -157 120z m85 -19 c20 -8 45 -56 45 -87 0 -40 -36 -77 -75 -77 -47
0 -64 8 -80 41 -22 42 -18 67 14 100 29 28 61 36 96 23z"/>
<path d="M8996 10123 c-3 -3 -6 -55 -6 -115 0 -89 3 -108 15 -108 11 0 15 12
15 48 0 88 10 122 41 137 38 20 65 19 89 -5 17 -17 20 -33 20 -100 0 -67 3
-80 16 -80 14 0 16 12 12 89 -5 98 -12 114 -64 131 -29 10 -41 9 -74 -8 -30
-14 -40 -16 -40 -6 0 15 -15 26 -24 17z"/>
<path d="M9913 10123 c-12 -2 -34 -18 -48 -34 -62 -75 -12 -189 84 -189 38 0
81 19 81 37 0 15 -16 17 -25 3 -7 -11 -74 -14 -100 -4 -8 4 -22 19 -31 35
l-15 29 96 0 c87 0 95 2 95 19 0 69 -66 119 -137 104z m81 -44 c48 -37 35 -49
-54 -49 -81 0 -81 0 -69 23 27 50 78 61 123 26z"/>
<path d="M7680 9540 c0 -136 2 -160 15 -160 12 0 15 15 15 79 0 74 2 81 26
100 32 25 61 27 92 5 20 -14 22 -24 22 -100 0 -68 3 -84 15 -84 12 0 15 16 15
88 0 82 -2 90 -26 113 -32 30 -93 32 -123 5 l-21 -19 0 66 c0 53 -3 67 -15 67
-13 0 -15 -24 -15 -160z"/>
<path d="M5870 9635 c0 -18 -5 -25 -20 -25 -11 0 -20 -7 -20 -15 0 -8 9 -15
20 -15 18 0 20 -7 20 -84 0 -64 4 -88 16 -100 16 -16 50 -21 78 -10 25 10 8
24 -28 24 -40 0 -46 14 -46 108 l0 62 35 0 c24 0 35 5 35 15 0 10 -11 15 -35
15 -31 0 -35 3 -35 25 0 14 -4 25 -10 25 -5 0 -10 -11 -10 -25z"/>
<path d="M7226 9653 c-3 -3 -6 -14 -6 -24 0 -9 -9 -19 -20 -22 -25 -7 -26 -27
-1 -27 16 0 19 -10 23 -86 5 -97 18 -117 72 -112 44 4 46 28 3 28 -43 0 -47
10 -47 101 l0 69 36 0 c45 0 42 24 -4 28 -24 2 -32 8 -32 22 0 20 -13 33 -24
23z"/>
<path d="M7516 9653 c-3 -3 -6 -15 -6 -25 0 -11 -7 -18 -20 -18 -11 0 -20 -7
-20 -15 0 -8 9 -15 20 -15 18 0 20 -7 20 -83 0 -90 13 -117 57 -117 58 0 71
27 16 32 l-38 3 -3 82 -3 82 33 3 c42 4 43 22 1 26 -25 2 -33 8 -33 22 0 20
-13 33 -24 23z"/>
<path d="M6620 9630 c0 -13 -7 -20 -20 -20 -11 0 -20 -7 -20 -15 0 -8 9 -15
20 -15 17 0 19 -8 22 -87 3 -82 5 -88 29 -102 16 -9 36 -11 52 -7 39 9 33 24
-10 28 l-38 3 -3 83 -3 82 36 0 c46 0 43 24 -3 28 -24 2 -32 8 -32 23 0 10 -7
19 -15 19 -8 0 -15 -9 -15 -20z"/>
<path d="M4164 9596 c-17 -8 -39 -24 -48 -37 -18 -27 -21 -87 -5 -122 24 -53
115 -75 160 -38 28 22 18 41 -11 23 -24 -15 -74 -16 -100 -2 -26 14 -43 71
-31 103 20 51 84 73 127 42 21 -14 34 -11 34 7 0 10 -62 38 -82 38 -7 -1 -27
-7 -44 -14z"/>
<path d="M4381 9595 c-25 -11 -31 -19 -24 -26 8 -8 17 -8 31 0 35 19 79 13 96
-11 27 -38 20 -45 -45 -50 -49 -4 -66 -9 -80 -27 -25 -31 -24 -47 6 -76 28
-29 79 -33 113 -9 20 14 22 14 22 0 0 -9 7 -16 15 -16 12 0 15 16 15 84 0 74
-3 88 -22 110 -29 32 -82 41 -127 21z m114 -116 c24 -37 -38 -86 -91 -73 -24
6 -40 36 -29 55 16 25 107 40 120 18z"/>
<path d="M4616 9603 c-3 -3 -6 -55 -6 -115 0 -89 3 -108 15 -108 12 0 15 15
15 75 0 67 3 79 25 100 29 30 68 32 95 5 17 -17 20 -33 20 -100 0 -62 3 -80
14 -80 10 0 15 20 18 81 3 70 6 83 27 100 28 23 59 24 89 3 20 -14 22 -24 22
-100 0 -68 3 -84 15 -84 12 0 15 16 15 84 0 68 -4 88 -20 109 -33 42 -87 44
-142 5 -14 -10 -21 -9 -38 7 -28 26 -91 26 -119 1 -18 -16 -21 -17 -21 -3 0
18 -14 30 -24 20z"/>
<path d="M5100 9591 c-103 -55 -58 -211 61 -211 38 0 90 32 76 46 -4 4 -13 2
-19 -4 -17 -17 -89 -15 -115 3 -11 8 -23 24 -26 35 -5 19 -1 20 84 20 102 0
113 8 85 66 -10 23 -29 40 -51 50 -44 18 -53 18 -95 -5z m105 -36 c40 -39 32
-45 -54 -45 -75 0 -79 1 -74 20 14 51 88 66 128 25z"/>
<path d="M5327 9603 c-4 -3 -7 -55 -7 -115 0 -89 3 -108 15 -108 12 0 15 13
16 58 0 85 17 124 57 136 18 5 31 14 29 20 -6 15 -47 9 -69 -11 -17 -15 -18
-15 -18 5 0 22 -10 28 -23 15z"/>
<path d="M5530 9593 c-66 -34 -81 -119 -31 -175 26 -30 35 -33 84 -33 31 0 61
6 70 14 22 17 11 34 -13 21 -10 -5 -37 -10 -59 -10 -31 0 -44 6 -60 26 -12 15
-21 31 -21 35 0 5 40 9 89 9 50 0 92 3 94 8 8 15 -13 69 -36 90 -33 31 -75 36
-117 15z m85 -19 c8 -4 22 -19 31 -35 l15 -29 -81 0 c-87 0 -95 6 -55 45 24
24 57 31 90 19z"/>
<path d="M6074 9596 c-43 -19 -64 -53 -64 -104 0 -37 6 -50 34 -78 28 -28 42
-34 76 -34 34 0 48 6 76 34 28 28 34 41 34 78 0 52 -21 85 -66 104 -41 17 -50
17 -90 0z m101 -41 c31 -30 33 -82 4 -119 -26 -33 -88 -37 -119 -6 -31 31 -28
102 6 129 36 28 79 27 109 -4z"/>
<path d="M6423 9595 c-65 -28 -47 -99 28 -111 22 -4 50 -15 62 -24 19 -16 20
-20 7 -35 -12 -14 -26 -16 -77 -12 -65 5 -83 -6 -37 -23 71 -27 147 1 147 54
0 36 -8 43 -73 59 -64 17 -85 40 -55 63 14 11 34 14 67 10 58 -6 72 9 21 23
-47 13 -51 13 -90 -4z"/>
<path d="M6813 9596 c-38 -17 -46 -43 -10 -31 12 4 38 9 58 12 30 4 39 1 53
-18 27 -39 21 -49 -31 -49 -60 0 -95 -18 -108 -54 -8 -25 -6 -31 18 -52 33
-28 82 -32 115 -8 20 14 22 14 22 0 0 -9 7 -16 15 -16 12 0 15 16 15 84 0 74
-3 88 -22 111 -28 32 -81 41 -125 21z m112 -117 c24 -37 -38 -86 -91 -73 -27
7 -41 39 -24 59 19 22 104 33 115 14z"/>
<path d="M7046 9603 c-3 -3 -6 -55 -6 -115 0 -89 3 -108 15 -108 12 0 15 15
15 73 0 80 14 111 55 121 14 4 25 13 25 22 0 18 -35 11 -62 -14 -16 -14 -18
-14 -18 1 0 18 -14 30 -24 20z"/>
<path d="M8002 9595 c-72 -31 -80 -147 -13 -192 42 -29 100 -30 132 -4 28 22
20 38 -9 22 -37 -20 -91 -13 -117 14 -14 13 -25 29 -25 35 0 6 34 10 90 10 74
0 92 3 97 16 10 27 -23 80 -60 97 -42 20 -52 20 -95 2z m103 -40 c40 -39 32
-45 -55 -45 -49 0 -80 4 -80 10 0 23 50 60 80 60 19 0 40 -9 55 -25z"/>
<path d="M8340 9495 c0 -96 3 -115 15 -115 12 0 15 15 15 75 0 67 3 79 25 100
29 30 68 32 95 5 17 -17 20 -33 20 -100 0 -64 3 -80 15 -80 12 0 15 15 15 75
0 67 3 79 25 100 29 30 68 32 95 5 17 -17 20 -33 20 -100 0 -64 3 -80 15 -80
12 0 15 16 15 84 0 74 -3 88 -22 110 -33 35 -75 41 -122 16 -38 -19 -41 -19
-59 -3 -25 23 -90 23 -115 0 -19 -17 -20 -17 -25 3 -3 11 -10 20 -16 20 -7 0
-11 -38 -11 -115z"/>
<path d="M8830 9593 c-44 -23 -67 -78 -54 -131 17 -70 121 -107 175 -63 28 22
20 38 -9 22 -12 -6 -39 -11 -61 -11 -31 0 -44 6 -60 26 -12 15 -21 31 -21 35
0 5 40 9 89 9 50 0 92 4 95 8 3 5 1 25 -5 44 -17 63 -89 92 -149 61z m97 -28
c11 -8 23 -24 26 -35 5 -19 1 -20 -74 -20 -86 0 -94 6 -54 45 27 28 70 32 102
10z"/>
<path d="M9070 9597 c-33 -11 -41 -35 -10 -29 74 14 87 13 103 -3 9 -9 17 -25
17 -36 0 -16 -7 -19 -40 -19 -22 0 -56 -7 -75 -14 -31 -13 -35 -20 -35 -50 0
-25 6 -39 22 -50 28 -20 78 -20 104 -1 25 19 34 19 34 0 0 -8 5 -15 10 -15 15
0 12 171 -4 192 -13 17 -58 38 -79 37 -7 0 -28 -5 -47 -12z m108 -138 c6 -49
-70 -77 -107 -40 -39 39 -3 71 74 67 24 -1 31 -6 33 -27z"/>
<path d="M9314 9596 c-64 -28 -47 -101 27 -112 22 -4 50 -15 62 -24 18 -15 19
-20 8 -34 -16 -19 -101 -22 -118 -5 -8 8 -13 7 -18 -1 -12 -20 12 -33 69 -38
48 -4 57 -1 80 21 46 46 26 83 -54 101 -64 14 -85 39 -55 62 14 11 34 14 67
10 58 -6 72 9 21 23 -47 13 -51 13 -89 -3z"/>
<path d="M9504 9595 c-4 -8 -4 -49 -2 -91 3 -69 6 -79 31 -100 32 -27 83 -32
113 -9 25 19 34 19 34 0 0 -8 7 -15 15 -15 13 0 15 17 13 112 -2 72 -7 113
-14 115 -8 3 -13 -22 -15 -76 -5 -99 -22 -123 -83 -119 -52 4 -66 29 -66 126
0 68 -12 94 -26 57z"/>
<path d="M9790 9495 c0 -96 3 -115 15 -115 12 0 15 15 15 73 0 80 14 111 55
121 14 4 25 13 25 22 0 18 -34 11 -61 -13 -14 -12 -17 -11 -22 7 -3 11 -10 20
-16 20 -7 0 -11 -38 -11 -115z"/>
<path d="M10001 9597 c-105 -54 -69 -217 48 -217 38 0 81 19 81 37 0 15 -16
17 -25 3 -7 -11 -74 -14 -100 -4 -8 4 -22 19 -31 35 l-15 29 96 0 95 0 0 28
c0 35 -23 68 -60 87 -35 18 -57 19 -89 2z m93 -38 c48 -37 35 -49 -54 -49
l-81 0 16 29 c23 46 75 55 119 20z"/>
<path d="M2495 7273 c-217 -47 -400 -181 -492 -359 -211 -408 -12 -873 433
-1011 57 -17 217 -18 4014 -18 3797 0 3957 1 4014 18 151 47 282 136 369 250
69 91 100 153 127 253 98 370 -132 759 -506 854 -76 20 -129 20 -4008 19
-2162 -1 -3940 -3 -3951 -6z m4295 -615 l0 -102 53 52 c34 34 61 52 77 52 23
0 21 -3 -23 -48 -26 -26 -47 -51 -47 -56 0 -5 17 -29 38 -55 70 -86 68 -81 39
-81 -19 0 -37 14 -70 54 -51 62 -67 60 -67 -11 0 -36 -3 -43 -20 -43 -19 0
-20 7 -20 170 0 163 1 170 20 170 19 0 20 -7 20 -102z m-605 57 c31 -31 32
-69 1 -100 l-23 -23 23 -12 c46 -25 50 -92 8 -131 -22 -21 -37 -24 -115 -27
l-89 -4 0 161 0 161 85 0 c78 0 88 -2 110 -25z m224 -60 c38 -19 41 -30 41
-141 0 -87 -1 -94 -20 -94 -11 0 -20 7 -20 16 0 14 -2 14 -22 0 -31 -22 -84
-20 -108 4 -24 24 -26 72 -4 94 15 16 27 20 97 31 45 7 52 39 11 57 -21 10
-31 9 -56 -5 -37 -21 -58 -22 -58 -2 0 19 57 55 88 55 13 0 36 -7 51 -15z
m267 -16 c13 -13 24 -28 24 -36 0 -19 -37 -16 -49 4 -13 24 -79 23 -97 -2 -19
-25 -18 -95 2 -123 20 -29 74 -30 99 -2 10 11 24 20 32 20 21 0 15 -29 -12
-55 -32 -33 -100 -35 -138 -4 -68 53 -51 185 28 220 31 13 85 2 111 -22z"/>
<path d="M6039 6695 c-10 -80 -7 -85 52 -85 38 0 51 4 63 22 25 36 1 62 -63
68 -31 4 -51 2 -52 -5z"/>
<path d="M6034 6556 c-3 -8 -4 -31 -2 -52 l3 -39 54 -3 c39 -2 58 1 72 14 26
23 24 59 -3 78 -29 20 -117 22 -124 2z"/>
<path d="M6322 6519 c-17 -6 -22 -15 -20 -31 2 -18 10 -24 39 -26 40 -3 69 17
69 49 0 15 -7 19 -32 18 -18 0 -43 -4 -56 -10z"/>
<path d="M4733 1270 c-51 -20 -49 -91 2 -110 40 -15 3410 -14 3438 1 29 16 37
28 37 61 0 62 109 58 -1757 57 -953 0 -1708 -4 -1720 -9z"/>
</g>
</svg>
